<svg width="40" height="42" viewBox="0 0 40 42" fill="none" xmlns="http://www.w3.org/2000/svg">
<path d="M34.7646 38.4287C31.8739 41.2178 28.2037 42.0946 23.8369 41.1104L23.4004 41.0117L23.4492 40.5674L24.1543 34.2354L24.207 33.7656L24.6787 33.792C27.087 33.924 28.6304 33.3552 29.4922 32.248L29.5 32.2373C30.4255 31.1108 31.0061 29.5479 31.2012 27.5039C31.3243 25.6225 31.3607 23.5923 31.3115 21.4131L23.4463 21.4131L23.4463 0.499999L39.0449 0.5L39.0449 26.0195C39.0449 31.4769 37.648 35.6465 34.7646 38.4287ZM11.9102 38.4287C9.01935 41.2179 5.34938 42.0947 0.982422 41.1103L0.545898 41.0117L0.595703 40.5674L1.30078 34.2353L1.35254 33.7656L1.8252 33.792C4.23302 33.9239 5.77592 33.3549 6.6377 32.248L6.64649 32.2373C7.57191 31.1108 8.15163 29.5477 8.34668 27.5039C8.46985 25.6224 8.50626 23.5924 8.45703 21.4131L0.592775 21.4131L0.592777 0.499997L16.1914 0.499998L16.1914 26.0195C16.1914 31.4771 14.7937 35.6465 11.9102 38.4287Z" stroke="#E1A871"/>
</svg>
