<svg width="32" height="32" viewBox="0 0 32 32" fill="none" xmlns="http://www.w3.org/2000/svg">
<path d="M15.083 0.0124989C12.4343 0.182844 9.65311 1.12704 7.45566 2.60175C5.13557 4.15919 3.29618 6.26174 2.10426 8.71472C1.45189 10.058 1.04477 11.3234 0.765186 12.8809C0.554269 14.049 0.510124 15.8108 0.657275 17.1639C0.853476 18.9841 1.52547 21.1645 2.4329 22.9459L2.69286 23.4472L2.08955 25.2334C1.756 26.2165 1.15268 28.0076 0.745565 29.2146C0.333542 30.4265 0 31.4485 0 31.4972C0 31.541 0.0637655 31.6043 0.142246 31.6335C0.269777 31.6821 0.284492 31.7016 0.259967 31.8525C0.230537 32.0082 0.235442 32.018 0.348258 31.9839C0.549364 31.9206 4.93937 30.5335 6.79348 29.9398C7.76467 29.6331 8.59853 29.3801 8.64758 29.3801C8.69172 29.3801 8.90264 29.4628 9.11356 29.5699C10.9088 30.4654 12.8218 31.0008 14.8574 31.1857C15.6618 31.2539 17.3001 31.2198 18.0898 31.1078C22.7692 30.4654 26.7521 27.9005 29.2046 23.9631C30.0041 22.6782 30.7644 20.8871 31.1715 19.3297C31.559 17.8355 31.7454 15.9812 31.6424 14.5503C31.3775 10.7491 29.8962 7.38116 27.3211 4.7335C24.8244 2.16858 21.6459 0.58194 18.026 0.100105C17.4963 0.0319672 15.6618 -0.0264397 15.083 0.0124989ZM17.0009 3.34154C18.752 3.48268 20.1891 3.86717 21.7048 4.60209C23.76 5.6047 25.4817 7.10373 26.757 9.0116C27.738 10.4766 28.3413 12.0535 28.5767 13.7764C28.6896 14.5941 28.6896 16.2489 28.5767 17.086C27.7772 22.9702 22.882 27.5063 16.942 27.8761C14.8475 28.0027 12.9002 27.662 10.9971 26.8346C10.4723 26.6059 9.60406 26.1386 9.33428 25.9439C9.2509 25.8807 9.14299 25.8271 9.09394 25.8271C9.04979 25.8271 8.00502 26.1435 6.77876 26.5329C5.5525 26.9222 4.54206 27.2386 4.53716 27.2288C4.52735 27.2191 4.84127 26.27 5.22877 25.1214C5.61627 23.9679 5.93509 22.9702 5.93509 22.8923C5.93509 22.8145 5.8468 22.6344 5.71927 22.4543C3.66897 19.539 3.00188 15.5139 3.9976 12.1022C4.21833 11.3624 4.39982 10.9097 4.75788 10.204C5.73889 8.30102 7.23493 6.64137 9.07432 5.42462C11.3944 3.88664 14.2933 3.12739 17.0009 3.34154Z" fill="white" fill-opacity="0.6"/>
<path d="M10.5119 7.83849C10.3991 7.87256 10.2372 7.95044 10.144 8.00397C9.89387 8.15972 9.16792 8.92871 8.94229 9.27913C8.22125 10.3937 8.05938 11.8781 8.49103 13.3285C8.81966 14.4236 9.22188 15.2607 9.95763 16.3898C10.8896 17.811 11.4929 18.58 12.4592 19.568C13.9111 21.0524 15.1324 21.8847 17.0062 22.6585C18.3894 23.2329 19.4096 23.5589 19.9835 23.6173C20.3808 23.6563 21.249 23.52 21.7592 23.3351C22.4655 23.082 23.2748 22.5174 23.5887 22.0599C23.9027 21.5927 24.2264 20.5365 24.2656 19.8357L24.2951 19.3733L24.143 19.1981C24.0351 19.0813 23.5936 18.8185 22.7009 18.3415C20.5819 17.2124 20.3122 17.1053 19.9786 17.2805C19.8952 17.3194 19.5813 17.6358 19.287 17.9765C18.4139 18.984 18.2324 19.1592 18.0853 19.1592C17.8989 19.1592 16.6775 18.5411 16.1085 18.1614C15.4464 17.7137 15.0147 17.3535 14.4703 16.7938C13.8228 16.127 13.1214 15.1731 12.729 14.4284L12.6407 14.2532L12.9938 13.8687C13.4598 13.3772 13.6511 13.0803 13.8375 12.5644C14.0288 12.0387 14.019 11.8781 13.7394 11.1529C13.4893 10.5056 13.2882 9.97025 12.9399 9.04065C12.6554 8.27653 12.4445 7.96504 12.1502 7.87256C11.8706 7.78982 10.7424 7.76549 10.5119 7.83849Z" fill="white" fill-opacity="0.6"/>
</svg>
