<svg width="768" height="126" viewBox="0 0 768 126" fill="none" xmlns="http://www.w3.org/2000/svg">
<path d="M-6 123.395V1.36074H3.73692V59.3271L61.7351 1.36074H74.6047L16.2679 60.0051L79.6849 123.395H66.6459L3.73692 61.0221V123.395H-6Z" fill="#212121" fill-opacity="0.6"/>
<path d="M134.96 125.938C122.825 125.938 112.636 123.254 104.395 117.887C96.1538 112.463 89.9448 104.977 85.7678 95.429C81.5908 85.8809 79.5023 74.8639 79.5023 62.378C79.5023 49.8921 81.5908 38.8751 85.7678 29.327C89.9448 19.7789 96.1538 12.3212 104.395 6.95399C112.636 1.53024 122.825 -1.18164 134.96 -1.18164C147.096 -1.18164 157.257 1.53024 165.441 6.95399C173.682 12.3212 179.891 19.7789 184.068 29.327C188.245 38.8751 190.334 49.8921 190.334 62.378C190.334 74.8639 188.245 85.8809 184.068 95.429C179.891 104.977 173.682 112.463 165.441 117.887C157.257 123.254 147.096 125.938 134.96 125.938ZM134.96 116.361C144.951 116.418 153.277 114.158 159.938 109.582C166.598 104.949 171.594 98.5646 174.924 90.429C178.254 82.2933 179.92 72.943 179.92 62.378C179.92 51.813 178.254 42.4626 174.924 34.327C171.594 26.1914 166.598 19.8354 159.938 15.2591C153.277 10.6828 144.951 8.39467 134.96 8.39467C124.969 8.33818 116.644 10.5981 109.983 15.1744C103.379 19.7507 98.4117 26.1349 95.0814 34.327C91.751 42.4626 90.0294 51.813 89.9166 62.378C89.8037 72.943 91.4124 82.2933 94.7427 90.429C98.1294 98.5081 103.181 104.864 109.898 109.497C116.615 114.073 124.969 116.361 134.96 116.361Z" fill="#212121" fill-opacity="0.6"/>
<path d="M207.326 123.395V1.36074H216.385L266.34 109.327L315.787 1.36074H325.185V123.226H315.617V23.8185L270.235 123.395H262.276L216.809 23.8185V123.395H207.326Z" fill="#212121" fill-opacity="0.6"/>
<path d="M391.555 123.395V107.548C385.289 108.621 379.193 108.339 373.266 106.7C367.396 105.005 362.118 102.067 357.433 97.8866C352.748 93.7058 349.023 88.3103 346.257 81.7001C343.491 75.0899 342.108 67.378 342.108 58.5644C342.108 49.6943 343.491 41.9824 346.257 35.4287C349.023 28.8185 352.748 23.423 357.433 19.2422C362.118 15.0049 367.396 12.0388 373.266 10.3438C379.193 8.64891 385.289 8.33818 391.555 9.41163V1.36074H401.291V9.41163C407.557 8.33818 413.625 8.64891 419.495 10.3438C425.422 12.0388 430.728 15.0049 435.413 19.2422C440.098 23.423 443.823 28.8185 446.589 35.4287C449.355 41.9824 450.738 49.6943 450.738 58.5644C450.738 67.378 449.355 75.0899 446.589 81.7001C443.823 88.3103 440.098 93.7058 435.413 97.8866C430.728 102.067 425.422 105.005 419.495 106.7C413.625 108.339 407.557 108.621 401.291 107.548V123.395H391.555ZM391.555 97.9714V18.8185C386.023 18.0275 380.858 18.423 376.06 20.0049C371.319 21.5868 367.17 24.1575 363.614 27.7168C360.114 31.2761 357.348 35.6547 355.316 40.8525C353.341 46.0502 352.353 51.9542 352.353 58.5644C352.353 65.1181 353.341 70.9939 355.316 76.1916C357.348 81.3894 360.114 85.7397 363.614 89.2425C367.17 92.7454 371.319 95.2595 376.06 96.7849C380.858 98.3104 386.023 98.7059 391.555 97.9714ZM401.291 97.9714C406.823 98.7059 411.96 98.3104 416.701 96.7849C421.443 95.2595 425.591 92.7736 429.148 89.3273C432.704 85.8244 435.469 81.4741 437.445 76.2764C439.477 71.0221 440.493 65.1464 440.493 58.6492C440.493 52.0955 439.477 46.2197 437.445 41.022C435.469 35.8242 432.704 31.4174 429.148 27.8016C425.591 24.1857 421.443 21.5868 416.701 20.0049C411.96 18.423 406.823 18.0275 401.291 18.8185V97.9714Z" fill="#212121" fill-opacity="0.6"/>
<path d="M516.301 125.938C504.165 125.938 493.977 123.254 485.735 117.887C477.494 112.463 471.285 104.977 467.108 95.429C462.931 85.8809 460.843 74.8639 460.843 62.378C460.843 49.8921 462.931 38.8751 467.108 29.327C471.285 19.7789 477.494 12.3212 485.735 6.95399C493.977 1.53024 504.165 -1.18164 516.301 -1.18164C528.437 -1.18164 538.597 1.53024 546.782 6.95399C555.023 12.3212 561.232 19.7789 565.409 29.327C569.586 38.8751 571.674 49.8921 571.674 62.378C571.674 74.8639 569.586 85.8809 565.409 95.429C561.232 104.977 555.023 112.463 546.782 117.887C538.597 123.254 528.437 125.938 516.301 125.938ZM516.301 116.361C526.292 116.418 534.618 114.158 541.278 109.582C547.939 104.949 552.934 98.5646 556.265 90.429C559.595 82.2933 561.26 72.943 561.26 62.378C561.26 51.813 559.595 42.4626 556.265 34.327C552.934 26.1914 547.939 19.8354 541.278 15.2591C534.618 10.6828 526.292 8.39467 516.301 8.39467C506.31 8.33818 497.984 10.5981 491.324 15.1744C484.719 19.7507 479.752 26.1349 476.422 34.327C473.092 42.4626 471.37 51.813 471.257 62.378C471.144 72.943 472.753 82.2933 476.083 90.429C479.47 98.5081 484.522 104.864 491.239 109.497C497.956 114.073 506.31 116.361 516.301 116.361Z" fill="#212121" fill-opacity="0.6"/>
<path d="M588.666 123.395V1.36074H634.641C635.827 1.36074 637.097 1.41724 638.451 1.53023C639.863 1.58673 641.33 1.75623 642.854 2.03871C648.95 2.99917 654.172 5.20257 658.518 8.64891C662.921 12.0388 666.279 16.3326 668.594 21.5303C670.908 26.6716 672.065 32.3496 672.065 38.5643C672.065 44.8355 670.908 50.57 668.594 55.7678C666.279 60.9091 662.921 65.2029 658.518 68.6492C654.172 72.0391 648.95 74.2142 642.854 75.1747C641.33 75.4007 639.863 75.5702 638.451 75.6831C637.097 75.7961 635.827 75.8526 634.641 75.8526H598.403V123.395H588.666ZM598.403 66.2763H634.472C635.488 66.2763 636.645 66.2198 637.944 66.1068C639.298 65.9938 640.653 65.8243 642.008 65.5983C646.41 64.6944 650.079 62.9147 653.015 60.2593C655.95 57.5475 658.151 54.2989 659.619 50.5135C661.086 46.7282 661.82 42.7451 661.82 38.5643C661.82 34.3835 661.086 30.4287 659.619 26.6999C658.151 22.9145 655.95 19.6942 653.015 17.0388C650.079 14.3269 646.41 12.519 642.008 11.615C640.653 11.3325 639.298 11.1348 637.944 11.0218C636.645 10.9088 635.488 10.8523 634.472 10.8523H598.403V66.2763Z" fill="#212121" fill-opacity="0.6"/>
<path d="M722.574 123.395V10.8523H678.885V1.36074H776V10.8523H732.311V123.395H722.574Z" fill="#212121" fill-opacity="0.6"/>
</svg>
