<svg width="53" height="40" viewBox="0 0 53 40" fill="none" xmlns="http://www.w3.org/2000/svg">
<path d="M11.3368 39.979L10.3909 39.3078L9.46477 38.575L8.60101 37.8021L7.73626 37.0086L6.93384 36.1544L6.17298 35.2788L5.43191 34.3836L4.75316 33.4482L4.09421 32.4718L3.49759 31.4748L2.94253 30.4573L2.42803 29.4192L1.95509 28.341L1.54349 27.2628L1.17246 26.1641L0.843974 25.0448L0.575841 23.906L0.370042 22.7661L0.185021 21.6273L0.0821217 20.4669L0.0207778 19.3075L0 18.1481L0.0415556 16.9878L0.123677 15.8284L0.267143 14.669L0.472942 13.5292L0.720296 12.3893L1.00822 11.271L1.35847 10.1723L1.74929 9.07357L2.20146 7.99539L2.67539 6.93677L3.23045 5.91924L3.80629 4.90269L4.42369 3.92626L5.10243 2.96939L5.82273 2.05362L5.80195 2.03405L6.0493 1.76891L6.33722 1.54486L6.6667 1.34233L6.99618 1.19949L7.36622 1.09773L7.73626 1.05664H8.10729L8.47733 1.11828L8.8266 1.22003L9.15608 1.38244L9.48555 1.58595L9.75269 1.83055V1.81L25.4518 17.3341L25.4726 17.3136L25.6991 17.5171L25.9871 17.6599L26.275 17.7607L26.5837 17.7812L26.8924 17.7607L27.1803 17.6599L27.4682 17.5171L27.6948 17.3136L27.7156 17.3341L43.4147 1.81V1.83055L43.6818 1.58595L44.0113 1.38244L44.3398 1.22003L44.69 1.11828L45.0601 1.05664H45.4311L45.8012 1.09773L46.1712 1.19949L46.5007 1.34233L46.8301 1.54486L47.1181 1.76891L47.3644 2.03405L47.3446 2.05362L48.064 2.96939L48.7437 3.92626L49.3611 4.90269L49.9369 5.91924L50.492 6.93677L50.9659 7.99539L51.4181 9.07357L51.8089 10.1723L52.1592 11.271L52.4471 12.3893L52.6934 13.5292L52.8992 14.669L53.0437 15.8284L53.1258 16.9878L53.1674 18.1481L53.1466 19.3075L53.0853 20.4669L52.9824 21.6273L52.7963 22.7661L52.5905 23.906L52.3234 25.0448L51.9939 26.1641L51.6239 27.2628L51.2123 28.341L50.7393 29.4192L50.2248 30.4573L49.6688 31.4748L49.0722 32.4718L48.4142 33.4482L47.7355 34.3836L46.9944 35.2788L46.2335 36.1544L45.4311 37.0086L44.5664 37.8021L43.7026 38.575L42.7765 39.3078L41.8296 39.979L41.8504 39.9995L38.7852 35.6858L39.6282 35.0753L40.4306 34.4246L41.2132 33.7329L41.9533 33.0001L42.6528 32.2477L43.3118 31.4543L43.949 30.6197L44.5258 29.7656L45.0601 28.8909L45.5538 27.9751L46.007 27.0388L46.3978 26.0829L46.7678 25.126L47.0765 24.129L47.3239 23.133L47.5297 22.1155L47.6939 21.098L47.7968 20.0805L47.8582 19.0434V18.0053L47.7968 16.9878L47.7147 15.9507L47.5504 14.9332L47.4881 14.7091L47.3446 14.485L47.1794 14.3021L46.9528 14.1798L46.7065 14.0986L46.4591 14.078L46.2128 14.1191L45.9862 14.2209L45.7804 14.3833L45.7596 14.3637L29.0325 30.9249L28.6822 31.2097L28.3122 31.4543L27.9006 31.6578L27.4682 31.7996L27.0359 31.9014L26.5837 31.9219L26.1305 31.9014L25.6991 31.7996L25.2668 31.6578L24.8552 31.4543L24.4851 31.2097L24.1349 30.9249L7.40678 14.3637L7.387 14.3833L7.1812 14.2209L6.95462 14.1191L6.70727 14.078L6.4609 14.0986L6.21355 14.1798L5.98796 14.3021L5.82273 14.485L5.67926 14.7091L5.61693 14.9332L5.45268 15.9507L5.37056 16.9878L5.30823 18.0053V19.0434L5.37056 20.0805L5.47346 21.098L5.6377 22.1155L5.8435 23.133L6.09086 24.129L6.39956 25.126L6.7696 26.0829L7.16042 27.0388L7.61258 27.9751L8.10729 28.8909L8.64158 29.7656L9.21742 30.6197L9.85559 31.4543L10.5145 32.2477L11.2141 33.0001L11.9541 33.7329L12.7368 34.4246L13.5392 35.0753L14.3822 35.6858L11.317 39.9995" fill="white"/>
<path d="M23.3557 6.36834L23.891 6.63251L24.4668 6.85656L25.0634 7.01897L25.66 7.14127L26.2774 7.20291H26.8948L27.5122 7.14127L28.1089 7.01897L28.7055 6.85656L29.2813 6.63251L29.8166 6.36834L41.4828 0L27.718 13.6114H27.6973L27.4707 13.8149L27.1828 13.9577L26.8948 14.0595L26.5861 14.079L26.2774 14.0595L25.9895 13.9577L25.7016 13.8149L25.475 13.6114H25.4542L11.6895 0L23.3349 6.36834" fill="#E1A871"/>
</svg>
