<svg width="56" height="64" viewBox="0 0 56 64" fill="none" xmlns="http://www.w3.org/2000/svg">
<path d="M12.539 41.5634L11.5798 40.8828L10.6407 40.1397L9.76481 39.3559L8.88791 38.5513L8.07422 37.6851L7.30267 36.7972L6.55118 35.8894L5.86291 34.9409L5.1947 33.9508L4.5897 32.9398L4.02684 31.9079L3.50511 30.8553L3.02552 29.762L2.60814 28.6686L2.2319 27.5545L1.8988 26.4195L1.6269 25.2646L1.41821 24.1088L1.23059 22.9539L1.12624 21.7773L1.06404 20.6016L1.04297 19.4259L1.08511 18.2492L1.16838 17.0736L1.31386 15.8979L1.52255 14.7421L1.77338 13.5862L2.06535 12.4522L2.42052 11.338L2.81683 10.2239L3.27535 9.13054L3.75594 8.05705L4.3188 7.02523L4.90273 5.99441L5.5288 5.00426L6.21708 4.03395L6.94749 3.10531L6.92642 3.08547L7.17725 2.8166L7.46922 2.5894L7.80332 2.38403L8.13743 2.23918L8.51267 2.136L8.88791 2.09433H9.26415L9.6394 2.15683L9.99357 2.26002L10.3277 2.42471L10.6618 2.63107L10.9327 2.87911V2.85827L26.8523 18.6005L26.8734 18.5796L27.1031 18.786L27.3951 18.9308L27.6871 19.033L28.0001 19.0539L28.3131 19.033L28.6051 18.9308L28.8971 18.786L29.1268 18.5796L29.1479 18.6005L45.0676 2.85827V2.87911L45.3384 2.63107L45.6726 2.42471L46.0056 2.26002L46.3608 2.15683L46.7361 2.09433H47.1123L47.4876 2.136L47.8628 2.23918L48.1969 2.38403L48.531 2.5894L48.823 2.8166L49.0728 3.08547L49.0527 3.10531L49.7821 4.03395L50.4714 5.00426L51.0975 5.99441L51.6814 7.02523L52.2443 8.05705L52.7249 9.13054L53.1834 10.2239L53.5797 11.338L53.9349 12.4522L54.2268 13.5862L54.4767 14.7421L54.6854 15.8979L54.8318 17.0736L54.9151 18.2492L54.9573 19.4259L54.9362 20.6016L54.874 21.7773L54.7696 22.9539L54.581 24.1088L54.3723 25.2646L54.1014 26.4195L53.7673 27.5545L53.3921 28.6686L52.9747 29.762L52.4951 30.8553L51.9734 31.9079L51.4095 32.9398L50.8045 33.9508L50.1373 34.9409L49.449 35.8894L48.6976 36.7972L47.926 37.6851L47.1123 38.5513L46.2354 39.3559L45.3595 40.1397L44.4204 40.8828L43.4602 41.5634L43.4813 41.5842L40.373 37.2099L41.2279 36.5908L42.0415 35.931L42.8352 35.2296L43.5856 34.4865L44.295 33.7236L44.9632 32.9189L45.6093 32.0726L46.1943 31.2065L46.7361 30.3195L47.2367 29.3909L47.6962 28.4414L48.0926 27.4721L48.4678 26.5018L48.7808 25.4908L49.0317 24.4808L49.2403 23.449L49.4069 22.4172L49.5112 21.3854L49.5734 20.3337V19.2811L49.5112 18.2492L49.428 17.1976L49.2614 16.1658L49.1982 15.9386L49.0527 15.7114L48.8852 15.5258L48.6554 15.4018L48.4056 15.3195L48.1548 15.2986L47.9049 15.3403L47.6752 15.4435L47.4665 15.6082L47.4454 15.5883L30.4833 32.3822L30.1281 32.6709L29.7529 32.9189L29.3355 33.1253L28.8971 33.2692L28.4586 33.3723L28.0001 33.3932L27.5406 33.3723L27.1031 33.2692L26.6647 33.1253L26.2473 32.9189L25.8721 32.6709L25.5169 32.3822L8.55381 15.5883L8.53374 15.6082L8.32505 15.4435L8.09529 15.3403L7.84446 15.2986L7.59463 15.3195L7.3438 15.4018L7.11505 15.5258L6.94749 15.7114L6.80201 15.9386L6.7388 16.1658L6.57225 17.1976L6.48898 18.2492L6.42577 19.2811V20.3337L6.48898 21.3854L6.59332 22.4172L6.75987 23.449L6.96856 24.4808L7.21939 25.4908L7.53243 26.5018L7.90767 27.4721L8.30398 28.4414L8.7625 29.3909L9.26415 30.3195L9.80595 31.2065L10.3899 32.0726L11.037 32.9189L11.7052 33.7236L12.4146 34.4865L13.1651 35.2296L13.9587 35.931L14.7724 36.5908L15.6272 37.2099L12.5189 41.5842" fill="#131313"/>
<path d="M24.7247 7.48026L25.2674 7.74814L25.8514 7.97534L26.4564 8.14003L27.0614 8.26405L27.6874 8.32655H28.3135L28.9396 8.26405L29.5446 8.14003L30.1496 7.97534L30.7335 7.74814L31.2763 7.48026L43.1064 1.02246L29.1483 14.825H29.1272L28.8975 15.0314L28.6055 15.1762L28.3135 15.2794L28.0005 15.2993L27.6874 15.2794L27.3955 15.1762L27.1035 15.0314L26.8738 14.825H26.8527L12.8945 1.02246L24.7036 7.48026" fill="#E1A871"/>
<path d="M48.3535 62.8491H47.0742V59.1857C47.0742 59.0235 47.1054 58.8636 47.1677 58.7059C47.2347 58.5436 47.3258 58.3995 47.4408 58.2733C47.5557 58.1471 47.6899 58.0457 47.8432 57.9691C48.0013 57.888 48.1714 57.8475 48.3535 57.8475C48.5404 57.8475 48.7128 57.8903 48.8709 57.9759C49.0291 58.0615 49.1728 58.1696 49.3022 58.3003C49.4315 58.431 49.5441 58.5752 49.6399 58.7329C49.7406 58.8906 49.822 59.0416 49.8843 59.1857L50.9911 61.7203L52.1194 59.1857C52.1817 59.0416 52.2608 58.8906 52.3566 58.7329C52.4524 58.5752 52.565 58.431 52.6944 58.3003C52.8238 58.1696 52.9675 58.0615 53.1256 57.9759C53.2837 57.8903 53.4586 57.8475 53.6503 57.8475C53.8419 57.8475 54.0168 57.8858 54.1749 57.9624C54.3378 58.0345 54.4744 58.1336 54.5846 58.2598C54.6947 58.3814 54.781 58.5234 54.8433 58.6856C54.9056 58.8478 54.9367 59.0145 54.9367 59.1857V62.8491H53.6503V59.1857L52.3782 61.8015C52.2919 61.9817 52.2057 62.1462 52.1194 62.2949C52.038 62.439 51.9446 62.563 51.8391 62.6666C51.7385 62.7657 51.6187 62.8423 51.4798 62.8964C51.3456 62.9505 51.1827 62.9775 50.9911 62.9775C50.8234 62.9775 50.6701 62.9415 50.5311 62.8694C50.3922 62.8018 50.2652 62.7139 50.1502 62.6058C50.0352 62.4931 49.9322 62.367 49.8412 62.2273C49.7549 62.0831 49.6783 61.9389 49.6112 61.7947L48.3535 59.1857V62.8491Z" fill="#131313"/>
<path d="M44.5561 57.8475H45.936V61.3351C45.936 61.5784 45.8953 61.7947 45.8139 61.9839C45.7324 62.1687 45.6174 62.3264 45.4689 62.4571C45.3251 62.5832 45.1479 62.6801 44.9371 62.7477C44.731 62.8153 44.501 62.8491 44.2471 62.8491H40.1434C39.8942 62.8491 39.6666 62.8153 39.4606 62.7477C39.2546 62.6756 39.0749 62.5742 38.9216 62.4436C38.7731 62.3129 38.6557 62.1552 38.5694 61.9704C38.488 61.7812 38.4473 61.5694 38.4473 61.3351V57.8475H39.82V61.1188C39.82 61.2405 39.8367 61.3418 39.8703 61.423C39.9086 61.4996 39.9972 61.5379 40.1362 61.5379H44.2327C44.3094 61.5379 44.3693 61.5288 44.4124 61.5108C44.4555 61.4883 44.4867 61.4613 44.5058 61.4297C44.5298 61.3982 44.5418 61.3621 44.5418 61.3216C44.5466 61.2765 44.549 61.2314 44.549 61.1864L44.5561 57.8475Z" fill="#131313"/>
<path d="M37.3223 57.8475V62.8491H35.8418V57.8475H37.3223Z" fill="#131313"/>
<path d="M28.1914 62.8491H26.9121V59.1857C26.9121 59.0235 26.9433 58.8636 27.0055 58.7059C27.0726 58.5436 27.1637 58.3995 27.2786 58.2733C27.3936 58.1471 27.5278 58.0457 27.6811 57.9691C27.8392 57.888 28.0093 57.8475 28.1914 57.8475C28.3782 57.8475 28.5507 57.8903 28.7088 57.9759C28.867 58.0615 29.0107 58.1696 29.1401 58.3003C29.2694 58.431 29.382 58.5752 29.4778 58.7329C29.5785 58.8906 29.6599 59.0416 29.7222 59.1857L30.829 61.7203L31.9573 59.1857C32.0196 59.0416 32.0987 58.8906 32.1945 58.7329C32.2903 58.5752 32.4029 58.431 32.5323 58.3003C32.6616 58.1696 32.8054 58.0615 32.9635 57.9759C33.1216 57.8903 33.2965 57.8475 33.4881 57.8475C33.6798 57.8475 33.8547 57.8858 34.0128 57.9624C34.1757 58.0345 34.3122 58.1336 34.4224 58.2598C34.5326 58.3814 34.6189 58.5234 34.6812 58.6856C34.7435 58.8478 34.7746 59.0145 34.7746 59.1857V62.8491H33.4881V59.1857L32.2161 61.8015C32.1298 61.9817 32.0436 62.1462 31.9573 62.2949C31.8759 62.439 31.7824 62.563 31.677 62.6666C31.5764 62.7657 31.4566 62.8423 31.3177 62.8964C31.1835 62.9505 31.0206 62.9775 30.829 62.9775C30.6613 62.9775 30.508 62.9415 30.369 62.8694C30.2301 62.8018 30.1031 62.7139 29.9881 62.6058C29.8731 62.4931 29.7701 62.367 29.6791 62.2273C29.5928 62.0831 29.5162 61.9389 29.4491 61.7947L28.1914 59.1857V62.8491Z" fill="#131313"/>
<path d="M25.8558 57.8475V59.1317H20.1135C19.9697 59.1317 19.8787 59.1745 19.8404 59.2601C19.8068 59.3457 19.79 59.4426 19.79 59.5507V59.7129H25.8558V61.0039H19.7972V61.1188C19.7972 61.2405 19.814 61.3418 19.8475 61.423C19.8859 61.5041 19.9745 61.5446 20.1135 61.5446H25.8558V62.8491H20.1135C19.8595 62.8491 19.6271 62.813 19.4163 62.7409C19.2103 62.6643 19.0306 62.5562 18.8773 62.4165C18.7288 62.2768 18.6138 62.1101 18.5323 61.9164C18.4509 61.7181 18.4102 61.4996 18.4102 61.2607V59.4493C18.4102 59.2285 18.4533 59.0213 18.5395 58.8275C18.6258 58.6293 18.7455 58.4603 18.8989 58.3206C19.0522 58.1764 19.2319 58.0638 19.4379 57.9827C19.6439 57.897 19.8691 57.8542 20.1135 57.8542L25.8558 57.8475Z" fill="#131313"/>
<path d="M9.81187 57.8543H15.8848C16.2202 57.8543 16.4765 57.8813 16.6538 57.9354C16.8359 57.9895 16.9676 58.0773 17.0491 58.199C17.1353 58.3206 17.1857 58.4829 17.2 58.6856C17.2144 58.8884 17.2216 59.1385 17.2216 59.4359C17.2216 59.5801 17.2144 59.695 17.2 59.7806C17.1857 59.8617 17.1665 59.9315 17.1425 59.9901C17.1186 60.0442 17.0874 60.0937 17.0491 60.1388C17.0108 60.1839 16.9676 60.2402 16.9197 60.3078C16.9581 60.3618 16.9964 60.4114 17.0347 60.4565C17.0778 60.497 17.1162 60.5443 17.1497 60.5984C17.188 60.648 17.2168 60.7043 17.236 60.7674C17.2599 60.826 17.2719 60.8981 17.2719 60.9837L17.5234 62.8491H16.122L15.8848 60.9837H11.1989V62.8491H9.80469L9.81187 57.8543ZM11.1989 59.7265H15.5686C15.6932 59.7265 15.777 59.6657 15.8201 59.544C15.8633 59.4224 15.8848 59.2849 15.8848 59.1317H11.1989V59.7265Z" fill="#131313"/>
<path d="M7.41769 57.8407C7.76745 57.8407 8.03816 57.879 8.22981 57.9556C8.42146 58.0322 8.56041 58.1403 8.64665 58.28C8.73769 58.4197 8.79039 58.5864 8.80476 58.7802C8.81914 58.9739 8.82632 59.1857 8.82632 59.4155C8.82632 59.6363 8.81914 59.8436 8.80476 60.0374C8.79039 60.2266 8.73769 60.3933 8.64665 60.5375C8.56041 60.6817 8.42146 60.7966 8.22981 60.8822C8.03816 60.9633 7.76745 61.0039 7.41769 61.0039H2.48746V62.8491H1.06445V57.8407H7.41769ZM2.48746 59.1317V59.767H7.04397C7.135 59.767 7.20687 59.749 7.25958 59.7129C7.31228 59.6769 7.34821 59.6296 7.36738 59.571C7.39134 59.5079 7.40571 59.4381 7.4105 59.3615C7.41529 59.2849 7.41769 59.2083 7.41769 59.1317H2.48746Z" fill="#131313"/>
<path d="M3.84472 56.7795L1.11328 56.7045V48.3463C1.11328 47.6324 1.34464 47.0141 1.80736 46.4905C2.27008 45.9678 2.85745 45.671 3.56948 45.6C3.64029 45.5901 3.73702 45.5852 3.85968 45.5852C4.5408 45.5852 5.15111 45.811 5.69061 46.2637C6.18923 46.6857 6.58514 47.2596 6.88032 47.9834L9.42827 54.184L12.2205 47.6511C12.4848 47.0072 12.8488 46.5023 13.3115 46.1345C13.7742 45.7676 14.3357 45.5842 14.9979 45.5842C15.8316 45.5842 16.5087 45.8889 17.0272 46.4974C17.5458 47.1058 17.8051 47.8325 17.8051 48.6776V56.7045H15.0736V48.5268L12.3731 54.3655C11.9054 55.3812 11.4806 56.0527 11.0986 56.3801C10.7177 56.7065 10.2769 56.9007 9.7793 56.9609C9.7085 56.9708 9.60578 56.9757 9.47414 56.9757C8.81297 56.9757 8.21762 56.7094 7.68908 56.176C7.2513 55.7332 6.85539 55.1248 6.49938 54.3507L3.84472 48.6323V56.7795Z" fill="#131313"/>
<path d="M31.5859 45.5847C32.6131 45.5847 33.3909 45.7149 33.9204 45.9762C34.6225 46.3174 35.1361 46.9642 35.4612 47.9168C35.5828 48.2984 35.6447 48.6594 35.6447 48.9996C35.6447 49.5015 35.538 49.9975 35.3246 50.4896C35.2537 50.6503 35.146 50.8455 35.0044 51.0763C35.1879 51.3583 35.3246 51.5841 35.4163 51.7557C35.7005 52.2892 35.8591 52.731 35.889 53.083C35.889 54.079 35.515 54.931 34.7671 55.64C34.0192 56.349 33.1266 56.704 32.0895 56.704H19.5781V45.5847H31.5859ZM32.639 49.6583V48.4207H22.5688V49.6583H32.639ZM32.7606 53.8226V52.5407H22.6137V53.8226H32.7606Z" fill="#131313"/>
<path d="M50.7614 49.747C51.7886 49.747 52.6841 50.0892 53.447 50.7726C54.2099 51.4569 54.5909 52.2912 54.5909 53.2773C54.5909 54.2634 54.2169 55.068 53.469 55.7218C52.721 56.3756 51.8285 56.703 50.7914 56.703L38.0207 56.7484V53.9123H51.6769V52.585H41.149C40.1119 52.585 39.2114 52.2527 38.4485 51.5891C37.6856 50.9254 37.3047 50.101 37.3047 49.1149C37.3047 48.1288 37.7415 47.2591 38.6171 46.5954C39.4308 45.9722 40.4021 45.6596 41.531 45.6596L53.829 45.5847V48.3911L40.3872 48.4059V49.749H50.7624L50.7614 49.747Z" fill="#131313"/>
</svg>
