<svg width="1900" height="259" viewBox="0 0 1900 259" fill="none" xmlns="http://www.w3.org/2000/svg">
<path d="M-1 254.768V51.6207H151.757V254.768H135.507V67.4211H15.2508V254.768H-1Z" fill="#212121" fill-opacity="0.6"/>
<path d="M286.756 259C266.501 259 249.497 254.533 235.743 245.598C221.988 236.569 211.625 224.108 204.654 208.213C197.683 192.319 194.197 173.979 194.197 153.194C194.197 132.409 197.683 114.07 204.654 98.1753C211.625 82.2809 221.988 69.8663 235.743 60.9316C249.497 51.9029 266.501 47.3885 286.756 47.3885C307.01 47.3885 323.968 51.9029 337.628 60.9316C351.382 69.8663 361.745 82.2809 368.716 98.1753C375.688 114.07 379.173 132.409 379.173 153.194C379.173 173.979 375.688 192.319 368.716 208.213C361.745 224.108 351.382 236.569 337.628 245.598C323.968 254.533 307.01 259 286.756 259ZM286.756 243.059C303.431 243.153 317.326 239.391 328.443 231.773C339.559 224.061 347.897 213.433 353.455 199.89C359.013 186.347 361.792 170.782 361.792 153.194C361.792 135.607 359.013 120.042 353.455 106.499C347.897 92.9555 339.559 82.3749 328.443 74.7569C317.326 67.1389 303.431 63.3299 286.756 63.3299C270.081 63.2358 256.186 66.9978 245.069 74.6158C234.047 82.2339 225.757 92.8615 220.198 106.499C214.64 120.042 211.767 135.607 211.578 153.194C211.39 170.782 214.075 186.347 219.633 199.89C225.286 213.339 233.717 223.92 244.928 231.632C256.138 239.25 270.081 243.059 286.756 243.059Z" fill="#212121" fill-opacity="0.6"/>
<path d="M545.735 254.768V157.709L551.529 166.737C544.84 171.346 536.785 175.155 527.365 178.164C517.944 181.08 507.11 182.538 494.863 182.538C477.058 182.538 462.785 179.34 452.046 172.945C441.306 166.455 433.534 157.568 428.729 146.282C424.019 134.902 421.664 121.97 421.664 107.486V51.6207H438.056V101.279C438.056 111.53 439.092 120.7 441.165 128.788C443.332 136.783 446.676 143.601 451.198 149.244C455.814 154.793 461.749 159.025 469.003 161.941C476.257 164.762 484.971 166.173 495.146 166.173C508.241 166.173 519.545 164.245 529.06 160.389C538.575 156.533 545.641 152.348 550.257 147.833L545.735 164.339V51.6207H562.127V254.768H545.735Z" fill="#212121" fill-opacity="0.6"/>
<path d="M652.487 254.768L674.249 208.778L601.191 51.6207H618.996L682.727 191.002L747.448 51.6207H764.829L670.716 254.768H652.487Z" fill="#212121" fill-opacity="0.6"/>
<path d="M804.584 254.768V51.6207H882.446C892.998 51.6207 902.466 53.8779 910.85 58.3923C919.329 62.8126 925.97 68.8788 930.775 76.5909C935.674 84.3029 938.123 93.0025 938.123 102.69C938.123 113.599 935.108 123.428 929.079 132.174C923.05 140.827 915.042 146.893 905.056 150.373L904.491 143.601C917.868 147.645 928.467 154.417 936.286 163.916C944.199 173.321 948.156 184.983 948.156 198.902C948.156 210.564 945.565 220.581 940.384 228.951C935.297 237.228 928.231 243.623 919.187 248.137C910.143 252.558 899.875 254.768 888.381 254.768H804.584ZM820.976 238.826H883.012C892.056 238.826 900.157 237.275 907.317 234.171C914.571 231.067 920.271 226.6 924.416 220.769C928.655 214.938 930.775 207.884 930.775 199.608C930.775 191.425 928.844 184.042 924.981 177.459C921.213 170.782 916.078 165.515 909.578 161.659C903.078 157.709 895.777 155.734 887.675 155.734H820.976V238.826ZM820.976 140.074H882.305C889.371 140.074 895.824 138.428 901.665 135.137C907.6 131.845 912.31 127.378 915.796 121.735C919.281 115.998 921.024 109.461 921.024 102.125C921.024 91.6858 917.303 83.2684 909.861 76.873C902.513 70.4777 893.327 67.28 882.305 67.28H820.976V140.074Z" fill="#212121" fill-opacity="0.6"/>
<path d="M1071.64 259C1051.39 259 1034.38 254.533 1020.63 245.598C1006.87 236.569 996.51 224.108 989.538 208.213C982.567 192.319 979.081 173.979 979.081 153.194C979.081 132.409 982.567 114.07 989.538 98.1753C996.51 82.2809 1006.87 69.8663 1020.63 60.9316C1034.38 51.9029 1051.39 47.3885 1071.64 47.3885C1095.29 47.3885 1114.46 53.5017 1129.15 65.7282C1143.94 77.9546 1153.98 94.3192 1159.25 114.822L1142.44 118.913C1138.1 101.89 1130 88.3941 1118.13 78.4249C1106.36 68.3615 1090.86 63.3299 1071.64 63.3299C1054.97 63.3299 1041.07 67.1389 1029.95 74.7569C1018.93 82.3749 1010.59 92.9555 1004.94 106.499C999.383 120.042 996.557 135.607 996.462 153.194C996.274 170.782 998.959 186.347 1004.52 199.89C1010.17 213.339 1018.6 223.92 1029.81 231.632C1041.02 239.25 1054.97 243.059 1071.64 243.059C1090.86 243.059 1106.36 238.027 1118.13 227.964C1130 217.9 1138.1 204.404 1142.44 187.475L1159.25 191.566C1153.98 212.069 1143.94 228.434 1129.15 240.66C1114.46 252.887 1095.29 259 1071.64 259Z" fill="#212121" fill-opacity="0.6"/>
<path d="M1260.3 254.768V67.4211H1187.38V51.6207H1349.47V67.4211H1276.55V254.768H1260.3Z" fill="#212121" fill-opacity="0.6"/>
<path d="M1386.28 254.768V51.6207H1464.14C1474.69 51.6207 1484.16 53.8779 1492.54 58.3923C1501.02 62.8126 1507.66 68.8788 1512.47 76.5909C1517.37 84.3029 1519.82 93.0025 1519.82 102.69C1519.82 113.599 1516.8 123.428 1510.77 132.174C1504.74 140.827 1496.74 146.893 1486.75 150.373L1486.19 143.601C1499.56 147.645 1510.16 154.417 1517.98 163.916C1525.89 173.321 1529.85 184.983 1529.85 198.902C1529.85 210.564 1527.26 220.581 1522.08 228.951C1516.99 237.228 1509.93 243.623 1500.88 248.137C1491.84 252.558 1481.57 254.768 1470.08 254.768H1386.28ZM1402.67 238.826H1464.71C1473.75 238.826 1481.85 237.275 1489.01 234.171C1496.27 231.067 1501.96 226.6 1506.11 220.769C1510.35 214.938 1512.47 207.884 1512.47 199.608C1512.47 191.425 1510.54 184.042 1506.68 177.459C1502.91 170.782 1497.77 165.515 1491.27 161.659C1484.77 157.709 1477.47 155.734 1469.37 155.734H1402.67V238.826ZM1402.67 140.074H1464C1471.06 140.074 1477.52 138.428 1483.36 135.137C1489.29 131.845 1494 127.378 1497.49 121.735C1500.98 115.998 1502.72 109.461 1502.72 102.125C1502.72 91.6858 1499 83.2684 1491.55 76.873C1484.21 70.4777 1475.02 67.28 1464 67.28H1402.67V140.074Z" fill="#212121" fill-opacity="0.6"/>
<path d="M1600.27 254.768L1622.03 208.778L1548.97 51.6207H1566.77L1630.51 191.002L1695.23 51.6207H1712.61L1618.49 254.768H1600.27Z" fill="#212121" fill-opacity="0.6"/>
<path d="M1752.36 254.768V51.6207H1768.75V225.848L1886.61 51.6207H1903V254.768H1886.61V80.2588L1768.75 254.768H1752.36ZM1829.94 33.2811C1823.63 33.2811 1817.88 31.7292 1812.7 28.6256C1807.52 25.522 1803.38 21.3838 1800.27 16.2111C1797.16 11.0383 1795.6 5.30132 1795.6 -1H1809.73C1809.73 4.45487 1811.71 9.20437 1815.67 13.2485C1819.72 17.1986 1824.48 19.1736 1829.94 19.1736C1835.59 19.1736 1840.35 17.1986 1844.21 13.2485C1848.17 9.20437 1850.15 4.45487 1850.15 -1H1864.28C1864.28 5.30132 1862.73 11.0383 1859.62 16.2111C1856.6 21.3838 1852.46 25.522 1847.18 28.6256C1842 31.7292 1836.25 33.2811 1829.94 33.2811Z" fill="#212121" fill-opacity="0.6"/>
</svg>
