<svg width="362" height="90" viewBox="0 0 362 90" fill="none" xmlns="http://www.w3.org/2000/svg">
<path d="M51.8516 10.0343V35.579C46.6565 35.579 42.4356 39.7965 42.4356 45.0083H23.33L43.9046 19.7721L46.9123 16.069L41.9735 10L10 44.9911L41.7172 79.9822L41.9906 79.6565L13.4691 45.0083H23.33L51.8339 79.9994V54.2661C47.5104 53.426 44.2464 49.6029 44.2464 45.0083C44.2464 40.1051 47.9718 36.0762 52.7396 35.6133C57.5075 36.0762 61.25 40.1051 61.25 45.0083H80.3384L51.8516 10.0343Z" fill="white" fill-opacity="0.2"/>
<path d="M62.0165 10.0178L61.7089 10.3778L90.2134 45.0089H80.3359L59.5557 70.5193V70.5365L56.7702 73.9481L61.7089 80L93.6825 45.0089L62.0165 10.0178ZM191.057 50.2378C191.621 50.2378 193.518 50.1693 194.68 49.3978C196.065 48.4377 196.218 46.9462 196.218 45.9004V41.0657C196.218 40.0542 196.082 38.597 194.851 37.6369C194.082 37.0026 192.801 36.6768 191.04 36.6768H172.533V57.7298H178.343V50.2378H182.342C182.616 50.4779 190.613 57.7298 190.613 57.7298H199.226C199.226 57.7298 191.553 51.6265 189.827 50.2378H191.057ZM178.36 45.6946V41.2372H189.058C189.93 41.2372 190.271 41.4086 190.408 41.5115C190.664 41.7172 190.699 42.0087 190.699 42.3515V44.5803C190.699 45.0432 190.664 45.266 190.408 45.4375C190.254 45.5061 189.895 45.6946 188.973 45.6946H178.36ZM119.367 47.0662H130.612V41.8887H119.367V37.4483H138.644V32.288H112.703V57.7298H138.883V52.278H119.367V47.0662ZM162.038 52.9466H148.999V36.694H143.189V52.6552C143.189 53.5124 143.189 55.5354 144.488 56.684C145.325 57.4212 146.692 57.747 148.879 57.747H162.106C164.345 57.747 165.763 57.4041 166.549 56.6669C167.404 55.8783 167.848 54.541 167.848 52.6894V36.694H162.038V52.9466ZM347.454 36.6768C347.454 36.6768 338.5 47.992 337.799 48.8834C337.081 47.992 328.144 36.6768 328.144 36.6768H323.632V57.7298H329.443V45.6432C330.861 47.4262 337.098 55.3125 337.098 55.3125H338.534C338.534 55.3125 344.754 47.4433 346.19 45.6432V57.7298H352V36.6768H347.454ZM302.139 49.1063H311.879V44.5631H302.139V41.2372H318.766V36.6768H296.328V57.7298H319.005V52.9295H302.139V49.1063ZM222.176 36.6768H206.54C204.421 36.6768 203.07 37.0197 202.284 37.7569C201.037 38.8884 201.037 41.0143 201.037 41.9058V52.4666C201.037 53.2552 201.037 55.3811 202.182 56.5126C202.968 57.3184 204.472 57.6955 206.745 57.6955H222.193C223.834 57.6955 225.662 57.6098 226.756 56.4612C227.884 55.2611 227.884 53.3409 227.884 52.7066V41.9058C227.884 40.9457 227.884 38.9399 226.739 37.8426C225.508 36.6597 223.184 36.6597 222.193 36.6597M222.056 52.9466H206.847V41.4772H222.056V52.9466ZM285.596 44.3231H271.224V36.6768H265.414V57.7298H271.224V49.2949H285.596V57.7298H291.407V36.6768H285.596V44.3231ZM253.756 32.288H239.196C237.812 32.288 235.505 32.288 234.121 33.608C232.651 35.031 232.651 37.4998 232.651 38.5627V51.4551C232.651 52.5009 232.651 54.9868 234.121 56.4097C235.488 57.7298 237.812 57.7298 239.196 57.7298H253.756C255.14 57.7298 257.447 57.7298 258.831 56.4097C260.301 54.9868 260.301 52.5009 260.301 51.4551V48.1634H253.636V52.278H239.316V37.7398H253.636V41.4772H260.301V38.5627C260.301 37.4998 260.301 35.031 258.831 33.608C257.464 32.288 255.14 32.288 253.756 32.288Z" fill="white" fill-opacity="0.2"/>
</svg>
