<svg width="1900" height="103" viewBox="0 0 1900 103" fill="none" xmlns="http://www.w3.org/2000/svg">
<path d="M539.253 98.1986L510.961 98.6066L549.44 24.7016C554.727 14.6283 559.627 7.97215 564.192 4.70789C568.112 1.87716 572.728 0.474609 578.015 0.474609C583.302 0.474609 587.506 2.03026 591.504 5.11601C595.475 8.20176 600.246 14.9597 605.791 25.39L644.27 98.6321L616.907 98.224L602.026 72.6199H552.947L539.279 98.224L539.253 98.1986ZM565.817 47.5514H589.286L577.629 26.8692L565.817 47.5514Z" fill="white" fill-opacity="0.1"/>
<path d="M681.388 0.419922V73.6109H771.37V0.419922H797.65V69.6835C797.65 73.4833 796.954 76.7731 795.561 79.5528C794.168 82.3325 791.95 85.3419 788.856 88.5551C785.761 91.7684 782.46 94.1911 778.926 95.7722C775.393 97.3534 771.757 98.1439 767.991 98.1439L686.185 98.5519C681.362 98.5519 677.184 97.5064 673.651 95.4407C670.118 93.375 666.662 90.2637 663.257 86.1069C660.575 82.8426 658.615 79.7568 657.351 76.8496C656.088 73.9424 655.469 70.5251 655.469 66.6488V0.445449H681.362L681.388 0.419922Z" fill="white" fill-opacity="0.1"/>
<path d="M810.018 0.419922H950.703V25.2079H893.036L893.165 98.1439H868.097L867.555 25.2079H810.018V0.419922Z" fill="white" fill-opacity="0.1"/>
<path d="M997.91 0.701172H1071C1076.11 0.701172 1080.54 1.67029 1084.33 3.60845C1088.12 5.54661 1091.68 8.60677 1094.98 12.7636C1097.49 15.9514 1099.29 18.9861 1100.43 21.8423C1101.53 24.7241 1102.1 28.065 1102.1 31.8648V68.0776C1102.1 72.311 1101.35 76.0089 1099.88 79.1456C1098.41 82.2824 1096.07 85.4445 1092.84 88.6323C1086.68 94.7273 1079.25 97.7876 1070.59 97.7876H994.273C989.09 97.7876 984.679 97.0226 981.069 95.467C977.458 93.9114 973.925 91.2846 970.546 87.5868C967.684 84.399 965.672 81.2369 964.512 78.1001C963.351 74.9633 962.758 71.138 962.758 66.6242V29.6206C962.758 25.3873 963.738 21.5364 965.698 18.0936C967.4 15.0844 970.056 12.0496 973.667 8.9383C977.278 5.85254 980.94 3.71047 984.654 2.51188C988.367 1.31328 992.778 0.726699 997.858 0.726699L997.91 0.701172ZM1076.23 26.0247H988.393V73.2291H1076.23V26.0247Z" fill="white" fill-opacity="0.1"/>
<path d="M1140.21 98.8345L1116.2 98.1716V24.7001C1116.2 18.4265 1118.23 12.9945 1122.31 8.37865C1126.38 3.78828 1131.54 1.16154 1137.81 0.549491C1138.43 0.472984 1139.28 0.422011 1140.36 0.422011C1146.34 0.422011 1151.71 2.41109 1156.45 6.38941C1160.84 10.1127 1164.32 15.1368 1166.92 21.5123L1189.31 76.0102L1213.86 18.5795C1216.18 12.918 1219.38 8.48071 1223.46 5.24194C1227.53 2.00318 1232.46 0.396484 1238.29 0.396484C1245.61 0.396484 1251.57 3.07427 1256.13 8.4297C1260.7 13.7851 1262.97 20.1605 1262.97 27.5816V98.1205H1238.96V26.2556L1215.23 77.5658C1211.13 86.4916 1207.39 92.4081 1204.04 95.2643C1200.68 98.1205 1196.82 99.8292 1192.43 100.365C1191.81 100.441 1190.91 100.492 1189.75 100.492C1183.95 100.492 1178.71 98.146 1174.07 93.4536C1170.23 89.5773 1166.74 84.2219 1163.6 77.4128L1140.26 27.1482V98.7581L1140.21 98.8345Z" fill="white" fill-opacity="0.1"/>
<path d="M1311.04 0.701172H1384.13C1389.23 0.701172 1393.67 1.67029 1397.46 3.60845C1401.25 5.54661 1404.81 8.60677 1408.11 12.7636C1410.61 15.9514 1412.42 18.9861 1413.55 21.8423C1414.66 24.7241 1415.23 28.065 1415.23 31.8648V68.0776C1415.23 72.311 1414.48 76.0089 1413.01 79.1456C1411.54 82.2824 1409.2 85.4445 1405.97 88.6323C1399.81 94.7273 1392.38 97.7876 1383.72 97.7876H1307.4C1302.22 97.7876 1297.81 97.0226 1294.2 95.467C1290.59 93.9114 1287.08 91.2846 1283.68 87.5868C1280.81 84.399 1278.8 81.2369 1277.64 78.1001C1276.48 74.9633 1275.89 71.138 1275.89 66.6242V29.6206C1275.89 25.3873 1276.87 21.5364 1278.83 18.0936C1280.53 15.0844 1283.19 12.0496 1286.8 8.9383C1290.41 5.85254 1294.09 3.71047 1297.78 2.51188C1301.5 1.31328 1305.91 0.726699 1310.99 0.726699L1311.04 0.701172ZM1389.36 26.0247H1301.52V73.2291H1389.36V26.0247Z" fill="white" fill-opacity="0.1"/>
<path d="M1428.28 0.419922H1568.96V25.2079H1511.3L1511.43 98.1439H1486.36L1485.82 25.2079H1428.28V0.419922Z" fill="white" fill-opacity="0.1"/>
<path d="M1608.89 0.419922V98.96H1581.14V0.419922H1608.89Z" fill="white" fill-opacity="0.1"/>
<path d="M1648.57 0.729568L1687.88 73.6656L1727.98 0.474609H1756.4L1714.16 79.5311C1710.85 85.8046 1707.4 90.446 1703.84 93.4297C1699.46 97.153 1694.27 98.9892 1688.29 98.9892C1681.76 98.9892 1676.04 96.7449 1671.11 92.2311C1667.27 88.6863 1663.48 83.3564 1659.71 76.1903L1619.74 0.729568H1648.57Z" fill="white" fill-opacity="0.1"/>
<path d="M1802.69 0.0508983H1906.5V25.3744H1792.76V36.6465H1906.5V61.97L1793.43 62.225V72.5788H1906.5V98.5655H1802.43C1796.63 98.5655 1791.6 97.6984 1787.35 95.9897C1783.09 94.2556 1779.22 91.3229 1775.74 87.1661C1772.88 83.9018 1770.79 80.7395 1769.5 77.6792C1768.21 74.619 1767.56 71.0742 1767.56 66.9939V31.444C1767.56 26.5731 1768.34 22.3397 1769.91 18.7184C1771.48 15.0971 1774.04 11.6544 1777.62 8.3646C1781.21 5.10034 1784.87 2.88172 1788.61 1.73412C1792.35 0.586529 1797.07 0 1802.69 0V0.0508983Z" fill="white" fill-opacity="0.1"/>
<path d="M18.5903 100.787L-6 100.112V24.866C-6 18.4387 -3.91714 12.8725 0.248578 8.15848C4.4143 3.45337 9.70225 0.781228 16.1124 0.142044C16.7499 0.0532686 17.6207 0.00885914 18.725 0.00885914C24.8568 0.00885914 30.3513 2.04182 35.2083 6.11662C39.6972 9.91622 43.2614 15.083 45.9189 21.5991L68.8573 77.4212L93.9952 18.6074C96.3743 12.8103 99.6512 8.26499 103.817 4.95367C107.983 1.65121 113.037 0 118.998 0C126.504 0 132.6 2.74315 137.268 8.2206C141.937 13.6981 144.271 20.2408 144.271 27.8489V100.112H119.681V26.4906L95.3688 79.0547C91.1582 88.1985 87.3337 94.2442 83.8951 97.1915C80.4656 100.13 76.4974 101.879 72.0174 102.42C71.38 102.509 70.4553 102.554 69.2702 102.554C63.3179 102.554 57.9582 100.157 53.1999 95.3539C49.2586 91.3678 45.6944 85.8904 42.4893 78.9215L18.5903 27.4405V100.787Z" fill="white" fill-opacity="0.1"/>
<path d="M268.309 0.00683594C277.556 0.00683594 284.559 1.17867 289.326 3.53123C295.647 6.60286 300.27 12.4266 303.197 21.0023C304.292 24.4379 304.849 27.6871 304.849 30.7498C304.849 35.2685 303.888 39.7339 301.967 44.1638C301.33 45.6109 300.36 47.3686 299.085 49.446C300.737 51.9849 301.967 54.0179 302.793 55.5626C305.352 60.3654 306.779 64.3425 307.049 67.5118C307.049 76.4781 303.682 84.1484 296.949 90.5313C290.215 96.9143 282.18 100.11 272.843 100.11H160.207V0.00683594H268.309ZM277.79 36.68V25.5387H187.132V36.68H277.79ZM278.885 74.17V62.6291H187.536V74.17H278.885Z" fill="white" fill-opacity="0.1"/>
<path d="M440.973 37.4858C450.22 37.4858 458.282 40.5664 465.15 46.7185C472.019 52.8795 475.448 60.3899 475.448 69.2675C475.448 78.1451 472.081 85.3891 465.348 91.275C458.615 97.1608 450.579 100.108 441.242 100.108L326.272 100.517V74.9847H449.215V63.0354H354.436C345.099 63.0354 336.992 60.0437 330.124 54.0691C323.256 48.0945 319.826 40.6729 319.826 31.7953C319.826 22.9178 323.758 15.0878 331.641 9.11317C338.967 3.50255 347.711 0.688375 357.874 0.688375L468.589 0.0136719V25.2792L347.577 25.4124V37.5036H440.982L440.973 37.4858Z" fill="white" fill-opacity="0.1"/>
</svg>
